<svg id="Capa_1" enable-background="new 0 0 512.566 512.566" height="512" viewBox="0 0 512.566 512.566" width="512" xmlns="http://www.w3.org/2000/svg"><g id="XMLID_1037_"><path id="XMLID_1421_" d="m359.834 256.7c.155-52.426-28.236-101.104-78.27-134.949 15.26-12.771 28.163-27.309 38.002-42.988 15.273-24.335 23.345-51.571 23.345-78.763h-30c0 12.254-2.015 24.292-5.879 35.9h-103.485c-3.864-11.607-5.879-23.646-5.879-35.9h-30c0 27.192 8.072 54.428 23.345 78.763 9.839 15.678 22.742 30.216 38.003 42.988-50.033 33.845-78.425 82.522-78.27 134.949.154 52.165 28.512 100.491 78.251 134.129-15.085 12.626-27.861 26.976-37.655 42.454-15.487 24.475-23.673 51.891-23.673 79.284h30c0-11.882 1.895-23.552 5.522-34.822h104.2c3.627 11.269 5.522 22.94 5.522 34.822h30c0-27.394-8.186-54.81-23.673-79.284-9.794-15.478-22.57-29.828-37.655-42.454 49.737-33.639 78.095-81.964 78.249-134.129zm-178.065 14.583h147.041c-1.54 11.436-4.822 22.593-9.743 33.283h-127.554c-4.921-10.69-8.204-21.847-9.744-33.283zm147.043-30h-147.045c1.541-11.431 4.817-22.59 9.742-33.283h127.561c4.925 10.693 8.201 21.852 9.742 33.283zm-36.556-175.383c-9.388 14.107-21.818 27.102-36.966 38.471-15.148-11.369-27.578-24.363-36.966-38.471zm-38.682 75.7 1.716-1.048 1.717 1.049c17.13 10.464 31.543 22.78 42.918 36.399h-89.271c11.375-13.62 25.789-25.936 42.92-36.4zm-35.983 306.145c9.47-14.53 22.149-27.901 37.699-39.564 15.55 11.662 28.229 25.034 37.699 39.564zm38.417-76.164c-.242.146-.477.299-.718.446-.241-.147-.476-.3-.719-.446-17.575-10.594-32.344-23.122-43.943-37.014h89.323c-11.599 13.891-26.368 26.42-43.943 37.014z"/><path id="XMLID_1427_" d="m100.242 439.041c-7.846 0-15.363 6.899-15 15 .364 8.127 6.591 15 15 15 7.846 0 15.363-6.899 15-15-.364-8.127-6.59-15-15-15z"/><path id="XMLID_1428_" d="m128.725 88.232c-7.846 0-15.363 6.899-15 15 .364 8.127 6.591 15 15 15 7.846 0 15.363-6.899 15-15-.364-8.127-6.591-15-15-15z"/><path id="XMLID_1429_" d="m47.745 235.225c-7.846 0-15.363 6.899-15 15 .364 8.127 6.591 15 15 15 7.846 0 15.363-6.899 15-15-.364-8.127-6.591-15-15-15z"/><path id="XMLID_1430_" d="m412.324 439.041c-7.846 0-15.363 6.899-15 15 .364 8.127 6.591 15 15 15 7.846 0 15.363-6.899 15-15-.364-8.127-6.591-15-15-15z"/><path id="XMLID_1431_" d="m383.841 88.232c-7.846 0-15.363 6.899-15 15 .364 8.127 6.591 15 15 15 7.846 0 15.363-6.899 15-15-.364-8.127-6.59-15-15-15z"/><path id="XMLID_1432_" d="m464.822 235.225c-7.846 0-15.363 6.899-15 15 .364 8.127 6.591 15 15 15 7.846 0 15.363-6.899 15-15-.364-8.127-6.591-15-15-15z"/></g></svg>