<svg height="400" width="460">
	<g stroke="black">
      <path d="M 50 50 s -10 70 130 70"  stroke-width="1" fill="none" />
      <path d="M 410 50 s 0 70 -120 70"  stroke-width="1" fill="none" />
      <path d="M 180 120 s 60 0 60 80"  stroke-width="1" fill="none" />
      <path d="M 290 120 s -60 0 -50 80"  stroke-width="1" fill="none" />
      <path d="M 240 200 s 0 0 0 150"  stroke-width="1" fill="none" />
    </g>
  
  <!--<path d="M 100 50 s 150 300 300 0" stroke="blue" stroke-width="5" fill="none" />-->
  
  <!-- Mark relevant points -->
  <g stroke="black" stroke-width="3" fill="black">
    <circle id="pointA" cx="50" cy="50" r="1" />
    <!--<circle id="pointB" cx="180" cy="120" r="1" />-->
    <circle id="pointC" cx="410" cy="50" r="1" />
    <!--<circle id="pointD" cx="290" cy="120" r="1" />
    <circle id="pointE" cx="240" cy="200" r="1" />-->
    <circle id="pointF" cx="240" cy="350" r="1" />
  </g>
  <!-- Label the points -->
  <g font-size="30" font-family="sans-serif" fill="black" stroke="none" text-anchor="middle">
    <text x="50" y="50" dx="-30">A</text>
    <text x="240" y="350" dy="30">E</text>
    <text x="410" y="50" dx="30">C</text>
  </g>
  Sorry, your browser does not support inline SVG.
</svg>
